<svg height="128" viewBox="0 0 128 128" width="128" xmlns="http://www.w3.org/2000/svg"><path d="m91.7 94.8-9.5-15.6a68.4 68.4 0 0 0 3.1-19.3v-2.6c-1-17.4-7.7-23.7-12.7-28.7a22.7 22.7 0 0 1 -5.5-7.3h-.1a7.3 7.3 0 0 0 2.1-.7 3.1 3.1 0 0 0 1.4-2.7l-.2-.6a7.2 7.2 0 0 0 -3.6-.8 12.1 12.1 0 0 1 0-3.3c.1-.6.1-.6 1-.7h.1a1.3 1.3 0 0 0 1.1-.7 2.1 2.1 0 0 0 -.4-1.9h-.1v-.5c-1.4-3.4-2-5.7-2-7s-.5-2.1-.9-2.3h-.8c-.2.1-.7.4-.7 2.3s-.4 2.8-2.1 7v.4a2.9 2.9 0 0 0 -.5 1.4c0 .2.1.3.2.5a1.2 1.2 0 0 0 1 .7h.2c.8.1.8.1.9.7a16.8 16.8 0 0 1 .2 2 5.1 5.1 0 0 1 -.2 1.3c-1.9.1-3.1.4-3.5.8l-.3.6a3.1 3.1 0 0 0 1.4 2.7 8.6 8.6 0 0 0 2.1.7c-1.3 2.9-3.4 5-5.8 7.4-5 5-11.7 11.3-12.7 28.6v2.6a68.4 68.4 0 0 0 3.1 19.3l-9.7 15.7-5.7 33.2h6.5l6-21.1 10.1-8.5h.1l.3.2 1.1.4c.2 1 .4 2.1.5 2.8s.4 1.8 5.1 2.1v24.1h5.4v-24.1c5-.3 5.2-1.6 5.3-2.1s.3-1.8.5-2.8l1.1-.4h.2l10.1 8.4 6 21.1h6.5z" fill="#b4fff4"/></svg>